#!OML:ASF H:\MichaelJackson\Top Level 1\Subject 1\Session 1\male.ASF
:FULLY-SPECIFIED
:DEGREES
624
root 4.49726 17.3523 -7.4896 9.5263 12.8088 -4.26101
lowerback 1.5642 3.0193 1.69009
upperback 3.87109 3.95368 3.33041
thorax 2.98547 1.97457 2.52297
lowerneck -11.0933 -7.21844 0.602672
upperneck 36.6638 -10.957 0.859225
head 14.4909 -4.37977 -1.38393
rclavicle 5.86415e-014 5.08889e-014
rhumerus -17.7479 33.7542 -83.3477
rradius 135.794
rwrist -20.2753
rhand -46.903 -61.1359
rfingers 7.12502
rthumb -19.614 -629.834
lclavicle 5.86415e-014 5.08889e-014
lhumerus -68.3882 -12.5887 97.7607
lradius 51.9767
lwrist 9.08698
lhand 2.24491 9.50277
lfingers 7.12502
lthumb 27.7388 37.4765
rfemur -25.4457 -3.8197 28.0848
rtibia 42.8905
rfoot -5.38529 8.6198
rtoes 23.6064
lfemur -37.2513 1.48102 -16.425
ltibia 65.9929
lfoot 5.21111 -5.04586
ltoes 40.8283
625
root 4.48784 17.3919 -7.43789 9.33672 13.3572 -5.04865
lowerback 1.60462 2.92891 2.37216
upperback 3.85832 3.8271 3.66169
thorax 2.97749 1.92632 2.48212
lowerneck -11.0997 -7.25976 0.574964
upperneck 36.6602 -11.0118 0.867107
head 14.4935 -4.40454 -1.38444
rclavicle 3.69739e-014 1.82882e-014
rhumerus -17.8134 33.7266 -83.3391
rradius 135.913
rwrist -20.0091
rhand -46.9261 -60.8734
rfingers 7.12502
rthumb -19.6362 -449.902
lclavicle 3.69739e-014 1.82882e-014
lhumerus -68.6856 -12.4967 97.6096
lradius 52.4864
lwrist 9.41775
lhand 3.15508 9.93972
lfingers 7.12502
lthumb 28.6087 37.7701
rfemur -24.4289 -3.79027 29.007
rtibia 41.2226
rfoot -5.5825 7.8023
rtoes 22.3153
lfemur -39.3045 1.15749 -15.5198
ltibia 68.167
lfoot 6.69891 -5.32457
ltoes 42.6812
626
root 4.47835 17.421 -7.38376 9.14211 13.9319 -5.69356
lowerback 1.63998 2.81686 2.94846
upperback 3.8526 3.67356 3.9366
thorax 2.97586 1.86239 2.44264
lowerneck -11.0941 -7.30058 0.542114
upperneck 36.6335 -11.068 0.888861
head 14.4842 -4.43019 -1.37756
rclavicle -1.25234e-014 2.14687e-014
rhumerus -17.878 33.6901 -83.3712
rradius 136.021
rwrist -19.7036
rhand -46.9472 -60.5936
rfingers 7.12502
rthumb -19.6565 -449.62
lclavicle -1.25234e-014 2.14687e-014
lhumerus -69.0088 -12.4221 97.4469
lradius 52.9939
lwrist 9.93567
lhand 3.92715 10.3863
lfingers 7.12502
lthumb 29.3461 38.09
rfemur -23.3447 -3.80166 29.7791
rtibia 39.4894
rfoot -6.17884 6.79625
rtoes 21.0699
lfemur -41.2059 0.748997 -14.794
ltibia 70.0072
lfoot 7.47625 -5.6692
ltoes 43.7437
627
root 4.46843 17.4387 -7.32742 8.9436 14.4898 -6.17865
lowerback 1.6798 2.70329 3.39434
upperback 3.85916 3.51983 4.15315
thorax 2.97855 1.7956 2.41582
lowerneck -11.086 -7.34418 0.502189
upperneck 36.5984 -11.1259 0.911342
head 14.4709 -4.45792 -1.36915
rclavicle 7.95139e-015 5.56597e-015
rhumerus -17.9454 33.6287 -83.4337
rradius 136.118
rwrist -19.3818
rhand -46.9661 -60.3403
rfingers 7.12502
rthumb -19.6747 -449.365
lclavicle 7.95139e-015 5.56597e-015
lhumerus -69.3196 -12.3898 97.2947
lradius 53.4355
lwrist 10.5842
lhand 4.54459 10.7934
lfingers 7.12502
lthumb 29.9355 38.3923
rfemur -22.2214 -3.81227 30.3771
rtibia 37.7362
rfoot -7.09835 5.57076
rtoes 19.9093
lfemur -42.9081 0.301366 -14.2735
ltibia 71.4498
lfoot 7.71623 -5.97539
ltoes 44.2475
628
root 4.45806 17.4448 -7.26898 8.74153 14.9842 -6.51554
lowerback 1.73346 2.60954 3.71039
upperback 3.87566 3.39463 4.31777
thorax 2.97748 1.74018 2.40748
lowerneck -11.0769 -7.39349 0.453999
upperneck 36.5743 -11.1856 0.920816
head 14.4621 -4.48872 -1.36507
rclavicle 2.78299e-014 4.21423e-014
rhumerus -18.0276 33.535 -83.5192
rradius 136.201
rwrist -19.0739
rhand -46.9852 -60.149
rfingers 7.12502
rthumb -19.693 -449.171
lclavicle 2.78299e-014 4.21423e-014
lhumerus -69.5918 -12.4046 97.163
lradius 53.7622
lwrist 11.265
lhand 5.01709 11.1409
lfingers 7.12502
lthumb 30.3863 38.6575
rfemur -21.0913 -3.7775 30.8082
rtibia 36.0156
rfoot -8.233 4.11126
rtoes 18.8251
lfemur -44.3746 -0.13666 -13.9484
ltibia 72.4477
lfoot 7.63877 -6.16054
ltoes 44.3913
629
root 4.4477 17.4386 -7.20922 8.54527 15.3742 -6.73356
lowerback 1.80296 2.54973 3.92843
upperback 3.89712 3.31679 4.43554
thorax 2.9683 1.70626 2.40498
lowerneck -11.0704 -7.44551 0.399521
upperneck 36.5736 -11.2407 0.907938
head 14.4633 -4.52018 -1.36893
rclavicle 1.43125e-014 3.26007e-014
rhumerus -18.1328 33.4184 -83.6286
rradius 136.274
rwrist -18.8046
rhand -47.0021 -60.0338
rfingers 7.12502
rthumb -19.7093 -449.055
lclavicle 1.43125e-014 3.26007e-014
lhumerus -69.7998 -12.4536 97.0392
lradius 53.9345
lwrist 11.8713
lhand 5.37765 11.4018
lfingers 7.12502
lthumb 30.7301 38.8543
rfemur -20.0088 -3.68215 31.1011
rtibia 34.3903
rfoot -9.38492 2.49171
rtoes 17.9106
lfemur -45.5977 -0.528917 -13.7824
ltibia 72.9761
lfoot 7.47838 -6.18637
ltoes 44.403
